%TF.GenerationSoftware,KiCad,Pcbnew,(5.1.9)-1*%
%TF.CreationDate,2021-06-24T15:24:35+01:00*%
%TF.ProjectId,usteppers_hat,75737465-7070-4657-9273-5f6861742e6b,rev?*%
%TF.SameCoordinates,Original*%
%TF.FileFunction,Legend,Top*%
%TF.FilePolarity,Positive*%
%FSLAX46Y46*%
G04 Gerber Fmt 4.6, Leading zero omitted, Abs format (unit mm)*
G04 Created by KiCad (PCBNEW (5.1.9)-1) date 2021-06-24 15:24:35*
%MOMM*%
%LPD*%
G01*
G04 APERTURE LIST*
%ADD10C,0.100000*%
%ADD11C,0.200000*%
%ADD12C,0.120000*%
%ADD13C,0.254000*%
%ADD14C,0.150000*%
G04 APERTURE END LIST*
D10*
%TO.C,J5*%
X174250000Y-104630000D02*
X171900000Y-104650000D01*
X174250000Y-96010000D02*
X174250000Y-104630000D01*
X171800000Y-96010000D02*
X174300000Y-96010000D01*
D11*
X180700000Y-100330000D02*
X180700000Y-100330000D01*
X180700000Y-100430000D02*
X180700000Y-100430000D01*
X180700000Y-100330000D02*
X180700000Y-100330000D01*
D10*
X152400000Y-104630000D02*
X168600000Y-104650000D01*
X152400000Y-96010000D02*
X152400000Y-104630000D01*
X168600000Y-96010000D02*
X152400000Y-96010000D01*
D11*
X180700000Y-100430000D02*
G75*
G02*
X180700000Y-100330000I0J50000D01*
G01*
X180700000Y-100330000D02*
G75*
G02*
X180700000Y-100430000I0J-50000D01*
G01*
X180700000Y-100430000D02*
G75*
G02*
X180700000Y-100330000I0J50000D01*
G01*
D12*
%TO.C,R3*%
X189880000Y-95600000D02*
X186040000Y-95600000D01*
X189880000Y-97440000D02*
X186040000Y-97440000D01*
%TO.C,R2*%
X189880000Y-109570000D02*
X186040000Y-109570000D01*
X189880000Y-111410000D02*
X186040000Y-111410000D01*
%TO.C,R1*%
X189880000Y-123540000D02*
X186040000Y-123540000D01*
X189880000Y-125380000D02*
X186040000Y-125380000D01*
D10*
%TO.C,J7*%
X174250000Y-119870000D02*
X171900000Y-119890000D01*
X174250000Y-111250000D02*
X174250000Y-119870000D01*
X171800000Y-111250000D02*
X174300000Y-111250000D01*
D11*
X180700000Y-115570000D02*
X180700000Y-115570000D01*
X180700000Y-115670000D02*
X180700000Y-115670000D01*
X180700000Y-115570000D02*
X180700000Y-115570000D01*
D10*
X152400000Y-119870000D02*
X168600000Y-119890000D01*
X152400000Y-111250000D02*
X152400000Y-119870000D01*
X168600000Y-111250000D02*
X152400000Y-111250000D01*
D11*
X180700000Y-115670000D02*
G75*
G02*
X180700000Y-115570000I0J50000D01*
G01*
X180700000Y-115570000D02*
G75*
G02*
X180700000Y-115670000I0J-50000D01*
G01*
X180700000Y-115670000D02*
G75*
G02*
X180700000Y-115570000I0J50000D01*
G01*
D10*
%TO.C,J6*%
X174250000Y-135110000D02*
X171900000Y-135130000D01*
X174250000Y-126490000D02*
X174250000Y-135110000D01*
X171800000Y-126490000D02*
X174300000Y-126490000D01*
D11*
X180700000Y-130810000D02*
X180700000Y-130810000D01*
X180700000Y-130910000D02*
X180700000Y-130910000D01*
X180700000Y-130810000D02*
X180700000Y-130810000D01*
D10*
X152400000Y-135110000D02*
X168600000Y-135130000D01*
X152400000Y-126490000D02*
X152400000Y-135110000D01*
X168600000Y-126490000D02*
X152400000Y-126490000D01*
D11*
X180700000Y-130910000D02*
G75*
G02*
X180700000Y-130810000I0J50000D01*
G01*
X180700000Y-130810000D02*
G75*
G02*
X180700000Y-130910000I0J-50000D01*
G01*
X180700000Y-130910000D02*
G75*
G02*
X180700000Y-130810000I0J50000D01*
G01*
D12*
%TO.C,J4*%
X198060000Y-123250000D02*
X198060000Y-121920000D01*
X199390000Y-123250000D02*
X198060000Y-123250000D01*
X200660000Y-123250000D02*
X200660000Y-120590000D01*
X200660000Y-120590000D02*
X213420000Y-120590000D01*
X200660000Y-123250000D02*
X213420000Y-123250000D01*
X213420000Y-123250000D02*
X213420000Y-120590000D01*
%TO.C,J3*%
X198060000Y-97850000D02*
X198060000Y-96520000D01*
X199390000Y-97850000D02*
X198060000Y-97850000D01*
X200660000Y-97850000D02*
X200660000Y-95190000D01*
X200660000Y-95190000D02*
X213420000Y-95190000D01*
X200660000Y-97850000D02*
X213420000Y-97850000D01*
X213420000Y-97850000D02*
X213420000Y-95190000D01*
%TO.C,D3*%
X185130000Y-102680000D02*
X185130000Y-102836000D01*
X185130000Y-100364000D02*
X185130000Y-100520000D01*
X187731130Y-102679837D02*
G75*
G02*
X185649039Y-102680000I-1041130J1079837D01*
G01*
X187731130Y-100520163D02*
G75*
G03*
X185649039Y-100520000I-1041130J-1079837D01*
G01*
X188362335Y-102678608D02*
G75*
G02*
X185130000Y-102835516I-1672335J1078608D01*
G01*
X188362335Y-100521392D02*
G75*
G03*
X185130000Y-100364484I-1672335J-1078608D01*
G01*
%TO.C,D2*%
X185130000Y-116650000D02*
X185130000Y-116806000D01*
X185130000Y-114334000D02*
X185130000Y-114490000D01*
X187731130Y-116649837D02*
G75*
G02*
X185649039Y-116650000I-1041130J1079837D01*
G01*
X187731130Y-114490163D02*
G75*
G03*
X185649039Y-114490000I-1041130J-1079837D01*
G01*
X188362335Y-116648608D02*
G75*
G02*
X185130000Y-116805516I-1672335J1078608D01*
G01*
X188362335Y-114491392D02*
G75*
G03*
X185130000Y-114334484I-1672335J-1078608D01*
G01*
%TO.C,D1*%
X185130000Y-130620000D02*
X185130000Y-130776000D01*
X185130000Y-128304000D02*
X185130000Y-128460000D01*
X187731130Y-130619837D02*
G75*
G02*
X185649039Y-130620000I-1041130J1079837D01*
G01*
X187731130Y-128460163D02*
G75*
G03*
X185649039Y-128460000I-1041130J-1079837D01*
G01*
X188362335Y-130618608D02*
G75*
G02*
X185130000Y-130775516I-1672335J1078608D01*
G01*
X188362335Y-128461392D02*
G75*
G03*
X185130000Y-128304484I-1672335J-1078608D01*
G01*
%TO.C,J5*%
D13*
X166151666Y-99634523D02*
X166151666Y-100541666D01*
X166091190Y-100723095D01*
X165970238Y-100844047D01*
X165788809Y-100904523D01*
X165667857Y-100904523D01*
X167361190Y-99634523D02*
X166756428Y-99634523D01*
X166695952Y-100239285D01*
X166756428Y-100178809D01*
X166877380Y-100118333D01*
X167179761Y-100118333D01*
X167300714Y-100178809D01*
X167361190Y-100239285D01*
X167421666Y-100360238D01*
X167421666Y-100662619D01*
X167361190Y-100783571D01*
X167300714Y-100844047D01*
X167179761Y-100904523D01*
X166877380Y-100904523D01*
X166756428Y-100844047D01*
X166695952Y-100783571D01*
%TO.C,R3*%
D14*
X187793333Y-98892380D02*
X187460000Y-98416190D01*
X187221904Y-98892380D02*
X187221904Y-97892380D01*
X187602857Y-97892380D01*
X187698095Y-97940000D01*
X187745714Y-97987619D01*
X187793333Y-98082857D01*
X187793333Y-98225714D01*
X187745714Y-98320952D01*
X187698095Y-98368571D01*
X187602857Y-98416190D01*
X187221904Y-98416190D01*
X188126666Y-97892380D02*
X188745714Y-97892380D01*
X188412380Y-98273333D01*
X188555238Y-98273333D01*
X188650476Y-98320952D01*
X188698095Y-98368571D01*
X188745714Y-98463809D01*
X188745714Y-98701904D01*
X188698095Y-98797142D01*
X188650476Y-98844761D01*
X188555238Y-98892380D01*
X188269523Y-98892380D01*
X188174285Y-98844761D01*
X188126666Y-98797142D01*
%TO.C,R2*%
X187793333Y-112862380D02*
X187460000Y-112386190D01*
X187221904Y-112862380D02*
X187221904Y-111862380D01*
X187602857Y-111862380D01*
X187698095Y-111910000D01*
X187745714Y-111957619D01*
X187793333Y-112052857D01*
X187793333Y-112195714D01*
X187745714Y-112290952D01*
X187698095Y-112338571D01*
X187602857Y-112386190D01*
X187221904Y-112386190D01*
X188174285Y-111957619D02*
X188221904Y-111910000D01*
X188317142Y-111862380D01*
X188555238Y-111862380D01*
X188650476Y-111910000D01*
X188698095Y-111957619D01*
X188745714Y-112052857D01*
X188745714Y-112148095D01*
X188698095Y-112290952D01*
X188126666Y-112862380D01*
X188745714Y-112862380D01*
%TO.C,R1*%
X187793333Y-126832380D02*
X187460000Y-126356190D01*
X187221904Y-126832380D02*
X187221904Y-125832380D01*
X187602857Y-125832380D01*
X187698095Y-125880000D01*
X187745714Y-125927619D01*
X187793333Y-126022857D01*
X187793333Y-126165714D01*
X187745714Y-126260952D01*
X187698095Y-126308571D01*
X187602857Y-126356190D01*
X187221904Y-126356190D01*
X188745714Y-126832380D02*
X188174285Y-126832380D01*
X188460000Y-126832380D02*
X188460000Y-125832380D01*
X188364761Y-125975238D01*
X188269523Y-126070476D01*
X188174285Y-126118095D01*
%TO.C,J7*%
D13*
X166151666Y-114874523D02*
X166151666Y-115781666D01*
X166091190Y-115963095D01*
X165970238Y-116084047D01*
X165788809Y-116144523D01*
X165667857Y-116144523D01*
X166635476Y-114874523D02*
X167482142Y-114874523D01*
X166937857Y-116144523D01*
%TO.C,J6*%
X166151666Y-130114523D02*
X166151666Y-131021666D01*
X166091190Y-131203095D01*
X165970238Y-131324047D01*
X165788809Y-131384523D01*
X165667857Y-131384523D01*
X167300714Y-130114523D02*
X167058809Y-130114523D01*
X166937857Y-130175000D01*
X166877380Y-130235476D01*
X166756428Y-130416904D01*
X166695952Y-130658809D01*
X166695952Y-131142619D01*
X166756428Y-131263571D01*
X166816904Y-131324047D01*
X166937857Y-131384523D01*
X167179761Y-131384523D01*
X167300714Y-131324047D01*
X167361190Y-131263571D01*
X167421666Y-131142619D01*
X167421666Y-130840238D01*
X167361190Y-130719285D01*
X167300714Y-130658809D01*
X167179761Y-130598333D01*
X166937857Y-130598333D01*
X166816904Y-130658809D01*
X166756428Y-130719285D01*
X166695952Y-130840238D01*
%TO.C,J4*%
D14*
X196512380Y-122253333D02*
X197226666Y-122253333D01*
X197369523Y-122300952D01*
X197464761Y-122396190D01*
X197512380Y-122539047D01*
X197512380Y-122634285D01*
X196845714Y-121348571D02*
X197512380Y-121348571D01*
X196464761Y-121586666D02*
X197179047Y-121824761D01*
X197179047Y-121205714D01*
%TO.C,J3*%
X196512380Y-96853333D02*
X197226666Y-96853333D01*
X197369523Y-96900952D01*
X197464761Y-96996190D01*
X197512380Y-97139047D01*
X197512380Y-97234285D01*
X196512380Y-96472380D02*
X196512380Y-95853333D01*
X196893333Y-96186666D01*
X196893333Y-96043809D01*
X196940952Y-95948571D01*
X196988571Y-95900952D01*
X197083809Y-95853333D01*
X197321904Y-95853333D01*
X197417142Y-95900952D01*
X197464761Y-95948571D01*
X197512380Y-96043809D01*
X197512380Y-96329523D01*
X197464761Y-96424761D01*
X197417142Y-96472380D01*
%TO.C,D3*%
X185951904Y-99092380D02*
X185951904Y-98092380D01*
X186190000Y-98092380D01*
X186332857Y-98140000D01*
X186428095Y-98235238D01*
X186475714Y-98330476D01*
X186523333Y-98520952D01*
X186523333Y-98663809D01*
X186475714Y-98854285D01*
X186428095Y-98949523D01*
X186332857Y-99044761D01*
X186190000Y-99092380D01*
X185951904Y-99092380D01*
X186856666Y-98092380D02*
X187475714Y-98092380D01*
X187142380Y-98473333D01*
X187285238Y-98473333D01*
X187380476Y-98520952D01*
X187428095Y-98568571D01*
X187475714Y-98663809D01*
X187475714Y-98901904D01*
X187428095Y-98997142D01*
X187380476Y-99044761D01*
X187285238Y-99092380D01*
X186999523Y-99092380D01*
X186904285Y-99044761D01*
X186856666Y-98997142D01*
%TO.C,D2*%
X185951904Y-113062380D02*
X185951904Y-112062380D01*
X186190000Y-112062380D01*
X186332857Y-112110000D01*
X186428095Y-112205238D01*
X186475714Y-112300476D01*
X186523333Y-112490952D01*
X186523333Y-112633809D01*
X186475714Y-112824285D01*
X186428095Y-112919523D01*
X186332857Y-113014761D01*
X186190000Y-113062380D01*
X185951904Y-113062380D01*
X186904285Y-112157619D02*
X186951904Y-112110000D01*
X187047142Y-112062380D01*
X187285238Y-112062380D01*
X187380476Y-112110000D01*
X187428095Y-112157619D01*
X187475714Y-112252857D01*
X187475714Y-112348095D01*
X187428095Y-112490952D01*
X186856666Y-113062380D01*
X187475714Y-113062380D01*
%TO.C,D1*%
X185951904Y-127032380D02*
X185951904Y-126032380D01*
X186190000Y-126032380D01*
X186332857Y-126080000D01*
X186428095Y-126175238D01*
X186475714Y-126270476D01*
X186523333Y-126460952D01*
X186523333Y-126603809D01*
X186475714Y-126794285D01*
X186428095Y-126889523D01*
X186332857Y-126984761D01*
X186190000Y-127032380D01*
X185951904Y-127032380D01*
X187475714Y-127032380D02*
X186904285Y-127032380D01*
X187190000Y-127032380D02*
X187190000Y-126032380D01*
X187094761Y-126175238D01*
X186999523Y-126270476D01*
X186904285Y-126318095D01*
%TD*%
M02*
