%TF.GenerationSoftware,KiCad,Pcbnew,(5.1.9)-1*%
%TF.CreationDate,2021-06-24T15:24:35+01:00*%
%TF.ProjectId,usteppers_hat,75737465-7070-4657-9273-5f6861742e6b,rev?*%
%TF.SameCoordinates,Original*%
%TF.FileFunction,Legend,Bot*%
%TF.FilePolarity,Positive*%
%FSLAX46Y46*%
G04 Gerber Fmt 4.6, Leading zero omitted, Abs format (unit mm)*
G04 Created by KiCad (PCBNEW (5.1.9)-1) date 2021-06-24 15:24:35*
%MOMM*%
%LPD*%
G01*
G04 APERTURE LIST*
%ADD10C,0.120000*%
%ADD11C,0.150000*%
G04 APERTURE END LIST*
D10*
%TO.C,J2*%
X190440000Y-91500000D02*
X191770000Y-91500000D01*
X190440000Y-90170000D02*
X190440000Y-91500000D01*
X190440000Y-88900000D02*
X193100000Y-88900000D01*
X193100000Y-88900000D02*
X193100000Y-65980000D01*
X190440000Y-88900000D02*
X190440000Y-65980000D01*
X190440000Y-65980000D02*
X193100000Y-65980000D01*
%TO.C,J1*%
X170120000Y-91500000D02*
X171450000Y-91500000D01*
X170120000Y-90170000D02*
X170120000Y-91500000D01*
X170120000Y-88900000D02*
X172780000Y-88900000D01*
X172780000Y-88900000D02*
X172780000Y-65980000D01*
X170120000Y-88900000D02*
X170120000Y-65980000D01*
X170120000Y-65980000D02*
X172780000Y-65980000D01*
%TO.C,J2*%
D11*
X192103333Y-91952380D02*
X192103333Y-92666666D01*
X192150952Y-92809523D01*
X192246190Y-92904761D01*
X192389047Y-92952380D01*
X192484285Y-92952380D01*
X191674761Y-92047619D02*
X191627142Y-92000000D01*
X191531904Y-91952380D01*
X191293809Y-91952380D01*
X191198571Y-92000000D01*
X191150952Y-92047619D01*
X191103333Y-92142857D01*
X191103333Y-92238095D01*
X191150952Y-92380952D01*
X191722380Y-92952380D01*
X191103333Y-92952380D01*
%TO.C,J1*%
X171783333Y-91952380D02*
X171783333Y-92666666D01*
X171830952Y-92809523D01*
X171926190Y-92904761D01*
X172069047Y-92952380D01*
X172164285Y-92952380D01*
X170783333Y-92952380D02*
X171354761Y-92952380D01*
X171069047Y-92952380D02*
X171069047Y-91952380D01*
X171164285Y-92095238D01*
X171259523Y-92190476D01*
X171354761Y-92238095D01*
%TD*%
M02*
