%TF.GenerationSoftware,KiCad,Pcbnew,(5.1.9)-1*%
%TF.CreationDate,2021-06-24T15:24:35+01:00*%
%TF.ProjectId,usteppers_hat,75737465-7070-4657-9273-5f6861742e6b,rev?*%
%TF.SameCoordinates,Original*%
%TF.FileFunction,Copper,L2,Bot*%
%TF.FilePolarity,Positive*%
%FSLAX46Y46*%
G04 Gerber Fmt 4.6, Leading zero omitted, Abs format (unit mm)*
G04 Created by KiCad (PCBNEW (5.1.9)-1) date 2021-06-24 15:24:35*
%MOMM*%
%LPD*%
G01*
G04 APERTURE LIST*
%TA.AperFunction,ComponentPad*%
%ADD10C,2.790000*%
%TD*%
%TA.AperFunction,ComponentPad*%
%ADD11C,2.055000*%
%TD*%
%TA.AperFunction,ComponentPad*%
%ADD12O,1.400000X1.400000*%
%TD*%
%TA.AperFunction,ComponentPad*%
%ADD13C,1.400000*%
%TD*%
%TA.AperFunction,ComponentPad*%
%ADD14O,1.700000X1.700000*%
%TD*%
%TA.AperFunction,ComponentPad*%
%ADD15R,1.700000X1.700000*%
%TD*%
%TA.AperFunction,ComponentPad*%
%ADD16C,1.800000*%
%TD*%
%TA.AperFunction,ComponentPad*%
%ADD17R,1.800000X1.800000*%
%TD*%
G04 APERTURE END LIST*
D10*
%TO.P,J5,3*%
%TO.N,Earth*%
X170180000Y-104140000D03*
%TO.P,J5,2*%
X170180000Y-96520000D03*
D11*
%TO.P,J5,1*%
%TO.N,/A0*%
X177800000Y-100330000D03*
%TD*%
D12*
%TO.P,R3,2*%
%TO.N,/A0*%
X185420000Y-96520000D03*
D13*
%TO.P,R3,1*%
%TO.N,Net-(D3-Pad2)*%
X190500000Y-96520000D03*
%TD*%
D12*
%TO.P,R2,2*%
%TO.N,/D4*%
X185420000Y-110490000D03*
D13*
%TO.P,R2,1*%
%TO.N,Net-(D2-Pad2)*%
X190500000Y-110490000D03*
%TD*%
D12*
%TO.P,R1,2*%
%TO.N,/D3*%
X185420000Y-124460000D03*
D13*
%TO.P,R1,1*%
%TO.N,Net-(D1-Pad2)*%
X190500000Y-124460000D03*
%TD*%
D10*
%TO.P,J7,3*%
%TO.N,Earth*%
X170180000Y-119380000D03*
%TO.P,J7,2*%
X170180000Y-111760000D03*
D11*
%TO.P,J7,1*%
%TO.N,/D4*%
X177800000Y-115570000D03*
%TD*%
D10*
%TO.P,J6,3*%
%TO.N,Earth*%
X170180000Y-134620000D03*
%TO.P,J6,2*%
X170180000Y-127000000D03*
D11*
%TO.P,J6,1*%
%TO.N,/D3*%
X177800000Y-130810000D03*
%TD*%
D14*
%TO.P,J4,6*%
%TO.N,/CLK*%
X212090000Y-121920000D03*
%TO.P,J4,5*%
%TO.N,/CS1*%
X209550000Y-121920000D03*
%TO.P,J4,4*%
%TO.N,/D5*%
X207010000Y-121920000D03*
%TO.P,J4,3*%
%TO.N,Earth*%
X204470000Y-121920000D03*
%TO.P,J4,2*%
%TO.N,Net-(J4-Pad2)*%
X201930000Y-121920000D03*
D15*
%TO.P,J4,1*%
%TO.N,/5V*%
X199390000Y-121920000D03*
%TD*%
D14*
%TO.P,J3,6*%
%TO.N,/CLK*%
X212090000Y-96520000D03*
%TO.P,J3,5*%
%TO.N,/CS2*%
X209550000Y-96520000D03*
%TO.P,J3,4*%
%TO.N,/D5*%
X207010000Y-96520000D03*
%TO.P,J3,3*%
%TO.N,Earth*%
X204470000Y-96520000D03*
%TO.P,J3,2*%
%TO.N,Net-(J3-Pad2)*%
X201930000Y-96520000D03*
D15*
%TO.P,J3,1*%
%TO.N,/5V*%
X199390000Y-96520000D03*
%TD*%
D14*
%TO.P,J2,10*%
%TO.N,/RST*%
X191770000Y-67310000D03*
%TO.P,J2,9*%
%TO.N,/3V3*%
X191770000Y-69850000D03*
%TO.P,J2,8*%
%TO.N,/5V*%
X191770000Y-72390000D03*
%TO.P,J2,7*%
%TO.N,Earth*%
X191770000Y-74930000D03*
%TO.P,J2,6*%
X191770000Y-77470000D03*
%TO.P,J2,5*%
%TO.N,/VIN*%
X191770000Y-80010000D03*
%TO.P,J2,4*%
X191770000Y-82550000D03*
%TO.P,J2,3*%
%TO.N,/A0*%
X191770000Y-85090000D03*
%TO.P,J2,2*%
%TO.N,/A2*%
X191770000Y-87630000D03*
D15*
%TO.P,J2,1*%
%TO.N,/A1*%
X191770000Y-90170000D03*
%TD*%
D14*
%TO.P,J1,10*%
%TO.N,Earth*%
X171450000Y-67310000D03*
%TO.P,J1,9*%
%TO.N,/CS2*%
X171450000Y-69850000D03*
%TO.P,J1,8*%
%TO.N,/CLK*%
X171450000Y-72390000D03*
%TO.P,J1,7*%
%TO.N,/CS1*%
X171450000Y-74930000D03*
%TO.P,J1,6*%
%TO.N,/D5*%
X171450000Y-77470000D03*
%TO.P,J1,5*%
%TO.N,/D4*%
X171450000Y-80010000D03*
%TO.P,J1,4*%
%TO.N,/D3*%
X171450000Y-82550000D03*
%TO.P,J1,3*%
%TO.N,/D2*%
X171450000Y-85090000D03*
%TO.P,J1,2*%
%TO.N,/D1*%
X171450000Y-87630000D03*
D15*
%TO.P,J1,1*%
%TO.N,/D0*%
X171450000Y-90170000D03*
%TD*%
D16*
%TO.P,D3,2*%
%TO.N,Net-(D3-Pad2)*%
X187960000Y-101600000D03*
D17*
%TO.P,D3,1*%
%TO.N,Earth*%
X185420000Y-101600000D03*
%TD*%
D16*
%TO.P,D2,2*%
%TO.N,Net-(D2-Pad2)*%
X187960000Y-115570000D03*
D17*
%TO.P,D2,1*%
%TO.N,Earth*%
X185420000Y-115570000D03*
%TD*%
D16*
%TO.P,D1,2*%
%TO.N,Net-(D1-Pad2)*%
X187960000Y-129540000D03*
D17*
%TO.P,D1,1*%
%TO.N,Earth*%
X185420000Y-129540000D03*
%TD*%
M02*
