%TF.GenerationSoftware,KiCad,Pcbnew,(5.1.9)-1*%
%TF.CreationDate,2021-06-24T15:24:35+01:00*%
%TF.ProjectId,usteppers_hat,75737465-7070-4657-9273-5f6861742e6b,rev?*%
%TF.SameCoordinates,Original*%
%TF.FileFunction,Soldermask,Top*%
%TF.FilePolarity,Negative*%
%FSLAX46Y46*%
G04 Gerber Fmt 4.6, Leading zero omitted, Abs format (unit mm)*
G04 Created by KiCad (PCBNEW (5.1.9)-1) date 2021-06-24 15:24:35*
%MOMM*%
%LPD*%
G01*
G04 APERTURE LIST*
%ADD10C,2.790000*%
%ADD11C,2.055000*%
%ADD12O,1.400000X1.400000*%
%ADD13C,1.400000*%
%ADD14O,1.700000X1.700000*%
%ADD15R,1.700000X1.700000*%
%ADD16C,1.800000*%
%ADD17R,1.800000X1.800000*%
G04 APERTURE END LIST*
D10*
%TO.C,J5*%
X170180000Y-104140000D03*
X170180000Y-96520000D03*
D11*
X177800000Y-100330000D03*
%TD*%
D12*
%TO.C,R3*%
X185420000Y-96520000D03*
D13*
X190500000Y-96520000D03*
%TD*%
D12*
%TO.C,R2*%
X185420000Y-110490000D03*
D13*
X190500000Y-110490000D03*
%TD*%
D12*
%TO.C,R1*%
X185420000Y-124460000D03*
D13*
X190500000Y-124460000D03*
%TD*%
D10*
%TO.C,J7*%
X170180000Y-119380000D03*
X170180000Y-111760000D03*
D11*
X177800000Y-115570000D03*
%TD*%
D10*
%TO.C,J6*%
X170180000Y-134620000D03*
X170180000Y-127000000D03*
D11*
X177800000Y-130810000D03*
%TD*%
D14*
%TO.C,J4*%
X212090000Y-121920000D03*
X209550000Y-121920000D03*
X207010000Y-121920000D03*
X204470000Y-121920000D03*
X201930000Y-121920000D03*
D15*
X199390000Y-121920000D03*
%TD*%
D14*
%TO.C,J3*%
X212090000Y-96520000D03*
X209550000Y-96520000D03*
X207010000Y-96520000D03*
X204470000Y-96520000D03*
X201930000Y-96520000D03*
D15*
X199390000Y-96520000D03*
%TD*%
D14*
%TO.C,J2*%
X191770000Y-67310000D03*
X191770000Y-69850000D03*
X191770000Y-72390000D03*
X191770000Y-74930000D03*
X191770000Y-77470000D03*
X191770000Y-80010000D03*
X191770000Y-82550000D03*
X191770000Y-85090000D03*
X191770000Y-87630000D03*
D15*
X191770000Y-90170000D03*
%TD*%
D14*
%TO.C,J1*%
X171450000Y-67310000D03*
X171450000Y-69850000D03*
X171450000Y-72390000D03*
X171450000Y-74930000D03*
X171450000Y-77470000D03*
X171450000Y-80010000D03*
X171450000Y-82550000D03*
X171450000Y-85090000D03*
X171450000Y-87630000D03*
D15*
X171450000Y-90170000D03*
%TD*%
D16*
%TO.C,D3*%
X187960000Y-101600000D03*
D17*
X185420000Y-101600000D03*
%TD*%
D16*
%TO.C,D2*%
X187960000Y-115570000D03*
D17*
X185420000Y-115570000D03*
%TD*%
D16*
%TO.C,D1*%
X187960000Y-129540000D03*
D17*
X185420000Y-129540000D03*
%TD*%
M02*
