M48
; DRILL file {KiCad (5.1.9)-1} date 06/24/21 15:17:28
; FORMAT={-:-/ absolute / inch / decimal}
; #@! TF.CreationDate,2021-06-24T15:17:28+01:00
; #@! TF.GenerationSoftware,Kicad,Pcbnew,(5.1.9)-1
; #@! TF.FileFunction,Plated,1,2,PTH
FMAT,2
INCH
T1C0.0276
T2C0.0354
T3C0.0394
T4C0.0539
T5C0.0732
%
G90
G05
T1
X7.3Y-3.8
X7.3Y-4.35
X7.3Y-4.9
X7.5Y-3.8
X7.5Y-4.35
X7.5Y-4.9
T2
X7.3Y-4.0
X7.3Y-4.55
X7.3Y-5.1
X7.4Y-4.0
X7.4Y-4.55
X7.4Y-5.1
T3
X6.75Y-2.65
X6.75Y-2.75
X6.75Y-2.85
X6.75Y-2.95
X6.75Y-3.05
X6.75Y-3.15
X6.75Y-3.25
X6.75Y-3.35
X6.75Y-3.45
X6.75Y-3.55
X7.55Y-2.65
X7.55Y-2.75
X7.55Y-2.85
X7.55Y-2.95
X7.55Y-3.05
X7.55Y-3.15
X7.55Y-3.25
X7.55Y-3.35
X7.55Y-3.45
X7.55Y-3.55
X7.85Y-3.8
X7.85Y-4.8
X7.95Y-3.8
X7.95Y-4.8
X8.05Y-3.8
X8.05Y-4.8
X8.15Y-3.8
X8.15Y-4.8
X8.25Y-3.8
X8.25Y-4.8
X8.35Y-3.8
X8.35Y-4.8
T4
X7.0Y-3.95
X7.0Y-4.55
X7.0Y-5.15
T5
X6.7Y-3.8
X6.7Y-4.1
X6.7Y-4.4
X6.7Y-4.7
X6.7Y-5.0
X6.7Y-5.3
T0
M30
